<svg width="146" height="33" viewBox="0 0 146 33" fill="none" xmlns="http://www.w3.org/2000/svg">
<path d="M20.0214 28.4704C17.1948 30.8233 13.6616 31.9997 10.1285 31.9997C4.00427 31.9997 0 27.9998 0 21.8822C0 13.4117 6.12418 8 13.8972 8C19.7858 8 22.6124 11.2941 21.9057 16.7058L15.546 18.1175C16.0171 15.7646 15.3104 14.1176 12.955 14.1176C9.42181 14.1176 7.06636 17.1764 7.06636 21.6469C7.06636 24.4704 8.47963 26.1175 11.3062 26.1175C13.6616 26.1175 16.0171 24.941 17.9014 23.5292L20.0214 28.4704Z" fill="#8347AD"/>
<path d="M36.5096 8.23535C42.6338 8.23535 46.638 12.7059 46.638 18.5882C46.638 26.5881 40.0428 32.2351 32.9764 32.2351C26.8522 32.2351 23.0835 27.7646 23.0835 21.8823C22.8479 13.8823 29.2077 8.23535 36.5096 8.23535ZM33.683 25.8822C37.4518 25.8822 39.8072 22.5881 39.8072 18.8235C39.8072 16.2353 38.3939 14.1176 35.5674 14.1176C32.0342 14.1176 29.4432 17.1764 29.4432 21.1764C29.4432 23.7646 31.092 25.8822 33.683 25.8822Z" fill="#8347AD"/>
<path d="M75.6099 8.4707H85.9739C91.8626 8.4707 96.1024 12.2354 96.1024 18.1177C96.1024 26.8234 89.9782 31.7646 82.2052 31.7646H71.3701L75.6099 8.4707ZM81.263 14.1177L79.1431 26.1176H82.9118C86.6806 26.1176 89.2716 23.2941 89.2716 18.5882C89.2716 15.7647 87.8583 14.1177 85.0317 14.1177H81.263Z" fill="#8347AD"/>
<path d="M111.413 8.23535C117.537 8.23535 121.541 12.7059 121.541 18.5882C121.541 26.5881 114.946 32.2351 107.88 32.2351C101.756 32.2351 97.9868 27.7646 97.9868 21.8823C97.7513 13.8823 104.111 8.23535 111.413 8.23535ZM108.586 26.1175C112.355 26.1175 114.711 22.8234 114.711 19.0588C114.711 16.4706 113.297 14.3529 110.471 14.3529C106.938 14.3529 104.347 17.4117 104.347 21.4117C104.347 23.9999 105.76 26.1175 108.586 26.1175Z" fill="#FFC629"/>
<path d="M125.781 8.4707H137.323C141.092 8.4707 144.625 10.8236 144.625 15.0589C144.625 19.2941 141.563 22.1176 137.794 23.0588C139.443 24.7058 140.856 26.3529 142.74 26.3529C143.447 26.3529 144.389 26.1176 145.096 25.8823L144.86 31.0587C143.683 31.5293 142.269 31.9999 140.856 31.7646C135.438 31.7646 132.847 25.1764 130.021 23.0588H129.55L128.137 31.7646H121.777L125.781 8.4707ZM131.199 14.1177L130.492 18.8235H134.967C136.616 18.8235 137.794 17.6471 137.794 16.2353C137.794 15.0589 137.087 14.353 135.674 14.353L131.199 14.1177Z" fill="#8347AD"/>
<path d="M66.6593 8.4707L64.5394 21.647L56.5309 8.4707H50.8778L46.8735 31.7646H53.2333L55.5887 18.5882L63.5973 31.7646H69.0148L72.3124 13.8824L66.8949 8.4707H66.6593Z" fill="#8347AD"/>
<path d="M33.6829 0L39.807 6.11758L40.7492 0H33.6829Z" fill="#FFC629"/>
</svg>
