<svg width="545" height="121" viewBox="0 0 545 121" fill="none" xmlns="http://www.w3.org/2000/svg">
<path d="M75.0789 106.762C64.4795 115.585 51.2303 119.997 37.9811 119.997C15.0158 119.997 0 104.997 0 82.0566C0 50.2927 22.9653 29.9991 52.1136 29.9991C74.1956 29.9991 84.795 42.3518 82.1451 62.6453L58.2965 67.9393C60.0631 59.116 57.4133 52.9397 48.5804 52.9397C35.3312 52.9397 26.4984 64.41 26.4984 81.1742C26.4984 91.7622 31.7981 97.9385 42.3975 97.9385C51.2303 97.9385 60.0631 93.5269 67.1293 88.2329L75.0789 106.762Z" fill="white"/>
<path d="M136.909 30.8815C159.874 30.8815 174.89 47.6457 174.89 69.704C174.89 99.7032 150.158 120.879 123.66 120.879C100.694 120.879 86.5619 104.115 86.5619 82.0566C85.6786 52.0574 109.527 30.8815 136.909 30.8815ZM126.31 97.0562C140.442 97.0562 149.275 84.7036 149.275 70.5863C149.275 60.8807 143.975 52.9397 133.376 52.9397C120.127 52.9397 110.41 64.41 110.41 79.4096C110.41 89.1152 116.593 97.0562 126.31 97.0562Z" fill="white"/>
<path d="M283.533 31.7639H322.397C344.479 31.7639 360.378 45.8812 360.378 67.9394C360.378 100.586 337.413 119.115 308.265 119.115H267.634L283.533 31.7639ZM304.732 52.9398L296.782 97.9386H310.915C325.047 97.9386 334.763 87.3507 334.763 69.7041C334.763 59.1161 329.463 52.9398 318.864 52.9398H304.732Z" fill="white"/>
<path d="M417.792 30.8815C440.757 30.8815 455.773 47.6457 455.773 69.704C455.773 99.7032 431.041 120.879 404.542 120.879C381.577 120.879 367.445 104.115 367.445 82.0566C366.561 52.0574 390.41 30.8815 417.792 30.8815ZM407.192 97.9385C421.325 97.9385 430.158 85.5859 430.158 71.4686C430.158 61.763 424.858 53.822 414.259 53.822C401.009 53.822 391.293 65.2923 391.293 80.2919C391.293 89.9975 396.593 97.9385 407.192 97.9385Z" fill="#FFC629"/>
<path d="M471.672 31.7639H514.953C529.085 31.7639 542.334 40.5872 542.334 56.4691C542.334 72.3511 530.852 82.939 516.719 86.4683C522.902 92.6446 528.202 98.8209 535.268 98.8209C537.918 98.8209 541.451 97.9386 544.101 97.0563L543.218 116.468C538.801 118.232 533.502 119.997 528.202 119.115C507.887 119.115 498.17 94.4093 487.571 86.4683H485.805L480.505 119.115H456.656L471.672 31.7639ZM491.987 52.9398L489.338 70.5864H506.12C512.303 70.5864 516.719 66.1748 516.719 60.8808C516.719 56.4691 514.069 53.8221 508.77 53.8221L491.987 52.9398Z" fill="white"/>
<path d="M249.968 31.7639L242.019 81.1744L211.987 31.7639H190.788L175.772 119.115H199.621L208.454 69.7041L238.485 119.115H258.801L271.167 52.0575L250.851 31.7639H249.968Z" fill="white"/>
<path d="M126.31 0L149.275 22.9406L152.808 0H126.31Z" fill="#FFC629"/>
</svg>
